<svg xmlns="http://www.w3.org/2000/svg" xmlns:xlink="http://www.w3.org/1999/xlink" width="500" zoomAndPan="magnify" viewBox="0 0 375 374.999991" height="500" preserveAspectRatio="xMidYMid meet" version="1.0"><defs><clipPath id="b585d23886"><path d="M 78.832031 61 L 296.332031 61 L 296.332031 339 L 78.832031 339 Z M 78.832031 61 " clip-rule="nonzero"/></clipPath></defs><path fill="#1d1d1d" d="M 122.226562 134.144531 C 121.996094 133.960938 121.664062 133.980469 121.457031 134.195312 C 120.304688 135.417969 116.730469 139.21875 115.507812 140.515625 C 115.398438 140.625 115.347656 140.777344 115.355469 140.933594 C 115.363281 141.09375 115.4375 141.234375 115.558594 141.335938 C 117.855469 143.234375 127.980469 151.625 130.582031 153.773438 C 130.929688 154.0625 131.4375 154.042969 131.761719 153.730469 C 135.25 150.371094 153.660156 132.632812 156.773438 129.628906 C 156.890625 129.515625 156.957031 129.363281 156.953125 129.203125 C 156.945312 129.042969 156.882812 128.890625 156.761719 128.78125 C 155.511719 127.648438 152.078125 124.535156 150.902344 123.472656 C 150.675781 123.265625 150.332031 123.269531 150.109375 123.480469 C 147.679688 125.796875 134.648438 138.214844 131.757812 140.964844 C 131.433594 141.273438 130.933594 141.292969 130.585938 141.007812 C 128.816406 139.5625 123.710938 135.363281 122.226562 134.144531 Z M 122.226562 134.144531 " fill-opacity="1" fill-rule="evenodd"/><path fill="#1d1d1d" d="M 266.292969 143.035156 C 266.292969 142.859375 266.222656 142.695312 266.101562 142.574219 C 265.980469 142.453125 265.8125 142.382812 265.640625 142.382812 C 257.867188 142.382812 182.792969 142.382812 175.019531 142.382812 C 174.847656 142.382812 174.679688 142.453125 174.558594 142.574219 C 174.4375 142.695312 174.367188 142.859375 174.367188 143.035156 C 174.367188 145.011719 174.367188 150.941406 174.367188 152.914062 C 174.367188 153.089844 174.4375 153.253906 174.558594 153.375 C 174.679688 153.496094 174.847656 153.566406 175.019531 153.566406 C 182.792969 153.566406 257.867188 153.566406 265.640625 153.566406 C 265.8125 153.566406 265.980469 153.496094 266.101562 153.375 C 266.222656 153.253906 266.292969 153.089844 266.292969 152.914062 C 266.292969 150.941406 266.292969 145.011719 266.292969 143.035156 Z M 266.292969 143.035156 " fill-opacity="1" fill-rule="evenodd"/><path fill="#1d1d1d" d="M 122.226562 182.957031 C 121.996094 182.769531 121.664062 182.792969 121.457031 183.003906 C 120.304688 184.230469 116.730469 188.03125 115.507812 189.324219 C 115.398438 189.4375 115.347656 189.589844 115.355469 189.746094 C 115.363281 189.902344 115.4375 190.046875 115.558594 190.144531 C 117.855469 192.046875 127.980469 200.433594 130.582031 202.585938 C 130.929688 202.871094 131.4375 202.855469 131.761719 202.542969 C 135.25 199.183594 153.660156 181.445312 156.773438 178.441406 C 156.890625 178.328125 156.957031 178.175781 156.953125 178.015625 C 156.945312 177.855469 156.882812 177.703125 156.761719 177.59375 C 155.511719 176.460938 152.078125 173.347656 150.902344 172.28125 C 150.675781 172.078125 150.332031 172.082031 150.109375 172.289062 C 147.679688 174.609375 134.648438 187.027344 131.757812 189.777344 C 131.433594 190.085938 130.933594 190.101562 130.585938 189.820312 C 128.816406 188.367188 123.710938 184.175781 122.226562 182.957031 Z M 122.226562 182.957031 " fill-opacity="1" fill-rule="evenodd"/><path fill="#1d1d1d" d="M 266.292969 191.839844 C 266.292969 191.667969 266.222656 191.503906 266.101562 191.378906 C 265.980469 191.257812 265.8125 191.191406 265.640625 191.191406 C 257.867188 191.191406 182.792969 191.191406 175.019531 191.191406 C 174.847656 191.191406 174.679688 191.257812 174.558594 191.378906 C 174.4375 191.503906 174.367188 191.667969 174.367188 191.839844 C 174.367188 193.820312 174.367188 199.746094 174.367188 201.722656 C 174.367188 201.894531 174.4375 202.058594 174.558594 202.183594 C 174.679688 202.304688 174.847656 202.371094 175.019531 202.371094 C 182.792969 202.371094 257.867188 202.371094 265.640625 202.371094 C 265.8125 202.371094 265.980469 202.304688 266.101562 202.183594 C 266.222656 202.058594 266.292969 201.894531 266.292969 201.722656 C 266.292969 199.746094 266.292969 193.820312 266.292969 191.839844 Z M 266.292969 191.839844 " fill-opacity="1" fill-rule="evenodd"/><path fill="#1d1d1d" d="M 122.226562 231.765625 C 121.996094 231.578125 121.664062 231.597656 121.457031 231.8125 C 120.304688 233.039062 116.730469 236.835938 115.507812 238.132812 C 115.398438 238.246094 115.347656 238.398438 115.355469 238.554688 C 115.363281 238.710938 115.4375 238.851562 115.558594 238.953125 C 117.855469 240.851562 127.980469 249.242188 130.582031 251.394531 C 130.929688 251.679688 131.4375 251.660156 131.761719 251.347656 C 135.25 247.988281 153.660156 230.25 156.773438 227.246094 C 156.890625 227.136719 156.957031 226.984375 156.953125 226.820312 C 156.945312 226.660156 156.882812 226.507812 156.761719 226.398438 C 155.511719 225.265625 152.078125 222.152344 150.902344 221.089844 C 150.675781 220.882812 150.332031 220.890625 150.109375 221.097656 C 147.679688 223.414062 134.648438 235.832031 131.757812 238.582031 C 131.433594 238.890625 130.933594 238.910156 130.585938 238.628906 C 128.816406 237.179688 123.710938 232.984375 122.226562 231.765625 Z M 122.226562 231.765625 " fill-opacity="1" fill-rule="evenodd"/><path fill="#1d1d1d" d="M 266.292969 240.652344 C 266.292969 240.480469 266.222656 240.3125 266.101562 240.191406 C 265.980469 240.070312 265.8125 240 265.640625 240 C 257.867188 240 182.792969 240 175.019531 240 C 174.847656 240 174.679688 240.070312 174.558594 240.191406 C 174.4375 240.3125 174.367188 240.480469 174.367188 240.652344 C 174.367188 242.628906 174.367188 248.558594 174.367188 250.53125 C 174.367188 250.707031 174.4375 250.871094 174.558594 250.992188 C 174.679688 251.113281 174.847656 251.183594 175.019531 251.183594 C 182.792969 251.183594 257.867188 251.183594 265.640625 251.183594 C 265.8125 251.183594 265.980469 251.113281 266.101562 250.992188 C 266.222656 250.871094 266.292969 250.707031 266.292969 250.53125 C 266.292969 248.558594 266.292969 242.628906 266.292969 240.652344 Z M 266.292969 240.652344 " fill-opacity="1" fill-rule="evenodd"/><path fill="#1d1d1d" d="M 122.226562 280.574219 C 121.996094 280.386719 121.664062 280.410156 121.457031 280.621094 C 120.304688 281.847656 116.730469 285.648438 115.507812 286.941406 C 115.398438 287.054688 115.347656 287.207031 115.355469 287.363281 C 115.363281 287.519531 115.4375 287.664062 115.558594 287.765625 C 117.855469 289.664062 127.980469 298.050781 130.582031 300.203125 C 130.929688 300.492188 131.4375 300.472656 131.761719 300.160156 C 135.25 296.800781 153.660156 279.0625 156.773438 276.058594 C 156.890625 275.945312 156.957031 275.792969 156.953125 275.632812 C 156.945312 275.472656 156.882812 275.320312 156.761719 275.210938 C 155.511719 274.078125 152.078125 270.964844 150.902344 269.898438 C 150.675781 269.695312 150.332031 269.699219 150.109375 269.910156 C 147.679688 272.226562 134.648438 284.644531 131.757812 287.394531 C 131.433594 287.703125 130.933594 287.71875 130.585938 287.4375 C 128.816406 285.992188 123.710938 281.792969 122.226562 280.574219 Z M 122.226562 280.574219 " fill-opacity="1" fill-rule="evenodd"/><path fill="#1d1d1d" d="M 266.292969 289.464844 C 266.292969 289.289062 266.222656 289.125 266.101562 289.003906 C 265.980469 288.882812 265.8125 288.8125 265.640625 288.8125 C 257.867188 288.8125 182.792969 288.8125 175.019531 288.8125 C 174.847656 288.8125 174.679688 288.882812 174.558594 289.003906 C 174.4375 289.125 174.367188 289.289062 174.367188 289.464844 C 174.367188 291.441406 174.367188 297.371094 174.367188 299.34375 C 174.367188 299.515625 174.4375 299.683594 174.558594 299.804688 C 174.679688 299.925781 174.847656 299.996094 175.019531 299.996094 C 182.792969 299.996094 257.867188 299.996094 265.640625 299.996094 C 265.8125 299.996094 265.980469 299.925781 266.101562 299.804688 C 266.222656 299.683594 266.292969 299.515625 266.292969 299.34375 C 266.292969 297.367188 266.292969 291.4375 266.292969 289.464844 Z M 266.292969 289.464844 " fill-opacity="1" fill-rule="evenodd"/><g clip-path="url(#b585d23886)"><path fill="#1d1d1d" d="M 296.027344 91.292969 C 296.023438 91.066406 296.015625 90.84375 296.007812 90.617188 C 295.589844 81.015625 287.03125 73.238281 277.886719 73.15625 C 267.214844 73.121094 256.539062 73.089844 245.859375 73.066406 L 245.859375 66.101562 C 245.859375 63.398438 243.667969 61.207031 240.964844 61.207031 C 233.171875 61.207031 217.007812 61.207031 199.335938 61.207031 C 198.433594 66.921875 193.496094 71.308594 187.527344 71.308594 C 181.5625 71.308594 176.621094 66.921875 175.722656 61.207031 C 158.050781 61.207031 141.886719 61.207031 134.09375 61.207031 C 131.390625 61.207031 129.199219 63.398438 129.199219 66.101562 L 129.199219 73.066406 C 118.523438 73.085938 107.847656 73.117188 97.171875 73.15625 C 87.070312 73.246094 79.113281 81.953125 79.03125 91.292969 C 78.769531 167.675781 78.769531 244.054688 79.03125 320.433594 C 79.125 330.375 87.722656 338.480469 97.171875 338.570312 C 157.414062 338.738281 217.65625 338.738281 277.890625 338.570312 C 278.078125 338.570312 278.269531 338.566406 278.457031 338.558594 C 288.039062 338.199219 295.933594 329.730469 296.03125 320.433594 C 296.199219 244.050781 296.199219 167.675781 296.027344 91.292969 Z M 284.5 320.363281 C 284.460938 323.992188 281.316406 326.992188 277.859375 327.042969 C 217.65625 327.621094 157.441406 327.210938 97.234375 327.042969 C 93.605469 327.007812 90.605469 323.867188 90.554688 320.402344 C 89.863281 244.058594 90.292969 167.710938 90.554688 91.363281 C 90.589844 87.664062 93.789062 84.691406 97.289062 84.683594 C 107.984375 84.683594 118.679688 84.675781 129.375 84.664062 C 130.464844 91.449219 136.347656 96.632812 143.4375 96.632812 C 165.871094 96.632812 209.175781 96.632812 231.605469 96.632812 C 238.71875 96.632812 244.617188 91.421875 245.683594 84.609375 C 256.394531 84.621094 267.105469 84.648438 277.8125 84.683594 C 281.433594 84.71875 284.441406 87.851562 284.496094 91.324219 C 285.277344 167.667969 284.671875 244.015625 284.5 320.363281 Z M 284.5 320.363281 " fill-opacity="1" fill-rule="evenodd"/></g><path fill="#1d1d1d" d="M 187.523438 36.289062 C 200.246094 36.289062 210.574219 46.617188 210.574219 59.339844 C 210.574219 72.0625 200.246094 82.386719 187.523438 82.386719 C 174.800781 82.386719 164.476562 72.0625 164.476562 59.339844 C 164.476562 46.617188 174.808594 36.289062 187.523438 36.289062 Z M 187.523438 47.378906 C 194.128906 47.378906 199.492188 52.742188 199.492188 59.34375 C 199.492188 65.945312 194.128906 71.308594 187.523438 71.308594 C 180.921875 71.308594 175.558594 65.945312 175.558594 59.34375 C 175.558594 52.742188 180.921875 47.378906 187.523438 47.378906 Z M 187.523438 47.378906 " fill-opacity="1" fill-rule="evenodd"/></svg>