<svg xmlns="http://www.w3.org/2000/svg" xmlns:xlink="http://www.w3.org/1999/xlink" width="500" zoomAndPan="magnify" viewBox="0 0 375 374.999991" height="500" preserveAspectRatio="xMidYMid meet" version="1.0"><defs><clipPath id="e584821cde"><path d="M 44 47 L 331 47 L 331 333.671875 L 44 333.671875 Z M 44 47 " clip-rule="nonzero"/></clipPath></defs><g clip-path="url(#e584821cde)"><path fill="#1d1d1d" d="M 187.40625 333.769531 C 180.59375 333.769531 173.769531 333.277344 166.960938 332.292969 C 148.019531 329.554688 130.046875 323.109375 113.539062 313.128906 C 97.03125 303.152344 82.96875 290.234375 71.738281 274.738281 C 60.898438 259.773438 53.148438 243.050781 48.707031 225.03125 C 44.265625 207.015625 43.351562 188.605469 45.996094 170.316406 C 48.734375 151.375 55.183594 133.402344 65.160156 116.894531 C 79.332031 93.457031 99.75 74.699219 124.214844 62.652344 C 148.023438 50.929688 174.550781 46.039062 200.921875 48.515625 C 206.320312 49.019531 210.285156 53.808594 209.777344 59.207031 C 209.273438 64.609375 204.484375 68.578125 199.085938 68.066406 C 176.332031 65.929688 153.441406 70.152344 132.890625 80.269531 C 111.800781 90.65625 94.191406 106.832031 81.964844 127.054688 C 73.355469 141.300781 67.792969 156.800781 65.433594 173.128906 C 63.152344 188.898438 63.9375 204.78125 67.773438 220.332031 C 71.605469 235.882812 78.292969 250.3125 87.640625 263.21875 C 97.316406 276.574219 109.449219 287.714844 123.695312 296.324219 C 137.941406 304.9375 153.441406 310.5 169.765625 312.859375 C 185.539062 315.140625 201.425781 314.351562 216.972656 310.519531 C 232.519531 306.683594 246.953125 300 259.859375 290.648438 C 273.214844 280.972656 284.355469 268.84375 292.964844 254.597656 C 302.957031 238.066406 308.8125 220 310.359375 200.894531 C 311.839844 182.671875 309.167969 163.980469 302.632812 146.835938 C 300.703125 141.769531 303.246094 136.097656 308.3125 134.164062 C 313.378906 132.230469 319.050781 134.773438 320.984375 139.839844 C 328.550781 159.699219 331.644531 181.359375 329.933594 202.480469 C 329.054688 213.28125 326.941406 223.984375 323.640625 234.292969 C 320.246094 244.894531 315.582031 255.140625 309.773438 264.75 C 299.796875 281.257812 286.878906 295.320312 271.378906 306.550781 C 256.414062 317.390625 239.691406 325.140625 221.675781 329.582031 C 210.367188 332.371094 198.898438 333.765625 187.40625 333.765625 Z M 187.40625 333.769531 " fill-opacity="1" fill-rule="nonzero"/></g><path fill="#1d1d1d" d="M 151.957031 269.519531 C 146.972656 269.519531 142.082031 267.882812 138.066406 264.800781 C 132.851562 260.796875 129.617188 254.738281 129.191406 248.175781 L 127.414062 220.6875 C 127 214.285156 128.867188 207.917969 132.671875 202.753906 L 242.566406 53.527344 C 250.023438 43.402344 264.332031 41.230469 274.460938 48.6875 L 306.199219 72.058594 C 311.105469 75.671875 314.3125 80.980469 315.226562 87.003906 C 316.140625 93.027344 314.652344 99.046875 311.039062 103.953125 L 201.382812 252.855469 C 197.34375 258.34375 191.433594 262.097656 184.75 263.429688 L 156.414062 269.074219 C 154.933594 269.367188 153.441406 269.511719 151.960938 269.511719 Z M 260.9375 63.886719 C 259.960938 63.886719 258.996094 64.332031 258.375 65.179688 L 148.480469 214.402344 C 147.417969 215.847656 146.894531 217.632812 147.011719 219.421875 L 148.789062 246.910156 C 148.871094 248.164062 149.597656 248.898438 150.023438 249.226562 C 150.449219 249.550781 151.347656 250.066406 152.578125 249.820312 L 180.914062 244.179688 C 182.785156 243.804688 184.4375 242.753906 185.570312 241.21875 L 295.226562 92.316406 C 295.90625 91.394531 295.882812 90.445312 295.808594 89.957031 C 295.734375 89.472656 295.476562 88.558594 294.550781 87.878906 L 262.8125 64.507812 C 262.25 64.089844 261.589844 63.890625 260.9375 63.890625 Z M 260.9375 63.886719 " fill-opacity="1" fill-rule="nonzero"/><path fill="#1d1d1d" d="M 285.574219 127.632812 C 283.554688 127.632812 281.515625 127.011719 279.761719 125.71875 L 233.566406 91.703125 C 229.203125 88.484375 228.269531 82.339844 231.484375 77.972656 C 234.699219 73.605469 240.847656 72.671875 245.214844 75.890625 L 291.40625 109.90625 C 295.773438 113.121094 296.707031 119.269531 293.488281 123.636719 C 291.566406 126.25 288.589844 127.632812 285.574219 127.632812 Z M 285.574219 127.632812 " fill-opacity="1" fill-rule="nonzero"/></svg>