<svg xmlns="http://www.w3.org/2000/svg" xmlns:xlink="http://www.w3.org/1999/xlink" width="500" zoomAndPan="magnify" viewBox="0 0 375 374.999991" height="500" preserveAspectRatio="xMidYMid meet" version="1.0"><defs><clipPath id="4fc17b888c"><path d="M 33.015625 33.015625 L 342.015625 33.015625 L 342.015625 342.015625 L 33.015625 342.015625 Z M 33.015625 33.015625 " clip-rule="nonzero"/></clipPath></defs><g clip-path="url(#4fc17b888c)"><path fill="#000000" d="M 187.515625 33.015625 C 102.289062 33.015625 33.015625 102.289062 33.015625 187.515625 C 33.015625 272.738281 102.289062 342.015625 187.515625 342.015625 C 272.738281 342.015625 342.015625 272.738281 342.015625 187.515625 C 342.015625 102.289062 272.738281 33.015625 187.515625 33.015625 Z M 274.332031 202.464844 L 202.464844 202.464844 L 202.464844 274.332031 C 202.464844 282.507812 195.789062 289.285156 187.515625 289.285156 C 179.242188 289.285156 172.5625 282.507812 172.5625 274.332031 L 172.5625 202.464844 L 100.695312 202.464844 C 92.523438 202.464844 85.742188 195.789062 85.742188 187.515625 C 85.742188 179.242188 92.523438 172.5625 100.695312 172.5625 L 172.5625 172.5625 L 172.5625 100.695312 C 172.5625 92.523438 179.242188 85.742188 187.515625 85.742188 C 195.789062 85.742188 202.464844 92.523438 202.464844 100.695312 L 202.464844 172.5625 L 274.332031 172.5625 C 282.507812 172.5625 289.285156 179.242188 289.285156 187.515625 C 289.285156 195.789062 282.507812 202.464844 274.332031 202.464844 Z M 274.332031 202.464844 " fill-opacity="1" fill-rule="nonzero"/></g></svg>