<svg xmlns="http://www.w3.org/2000/svg" xmlns:xlink="http://www.w3.org/1999/xlink" width="500" zoomAndPan="magnify" viewBox="0 0 375 374.999991" height="500" preserveAspectRatio="xMidYMid meet" version="1.0"><defs><clipPath id="ef8f1287ea"><path d="M 41.171875 41.171875 L 333.671875 41.171875 L 333.671875 333.671875 L 41.171875 333.671875 Z M 41.171875 41.171875 " clip-rule="nonzero"/></clipPath></defs><g clip-path="url(#ef8f1287ea)"><path fill="#1d1d1d" d="M 187.496094 62.476562 C 256.433594 62.476562 312.515625 118.5625 312.515625 187.496094 C 312.515625 256.433594 256.433594 312.515625 187.496094 312.515625 C 118.5625 312.515625 62.476562 256.433594 62.476562 187.496094 C 62.476562 118.5625 118.5625 62.476562 187.496094 62.476562 Z M 187.496094 333.824219 C 268.183594 333.824219 333.824219 268.183594 333.824219 187.496094 C 333.824219 106.8125 268.183594 41.171875 187.496094 41.171875 C 106.8125 41.171875 41.171875 106.8125 41.171875 187.496094 C 41.171875 268.183594 106.8125 333.824219 187.496094 333.824219 " fill-opacity="1" fill-rule="nonzero"/></g><path fill="#1d1d1d" d="M 134.265625 240.726562 C 136.761719 243.222656 140.03125 244.472656 143.304688 244.472656 C 146.574219 244.472656 149.847656 243.222656 152.34375 240.726562 L 187.496094 205.574219 L 222.648438 240.726562 C 225.144531 243.222656 228.417969 244.472656 231.691406 244.472656 C 234.960938 244.472656 238.234375 243.222656 240.726562 240.726562 C 245.722656 235.734375 245.722656 227.644531 240.726562 222.648438 L 205.574219 187.496094 L 240.726562 152.34375 C 245.722656 147.351562 245.722656 139.257812 240.726562 134.265625 C 235.738281 129.273438 227.644531 129.273438 222.648438 134.265625 L 187.496094 169.417969 L 152.34375 134.265625 C 147.351562 129.273438 139.257812 129.273438 134.265625 134.265625 C 129.273438 139.257812 129.273438 147.351562 134.265625 152.34375 L 169.417969 187.496094 L 134.265625 222.648438 C 129.273438 227.644531 129.273438 235.734375 134.265625 240.726562 " fill-opacity="1" fill-rule="nonzero"/></svg>