<svg xmlns="http://www.w3.org/2000/svg" xmlns:xlink="http://www.w3.org/1999/xlink" width="500" zoomAndPan="magnify" viewBox="0 0 375 374.999991" height="500" preserveAspectRatio="xMidYMid meet" version="1.0"><defs><clipPath id="e957f018fe"><path d="M 36.714844 36.714844 L 338.214844 36.714844 L 338.214844 338.214844 L 36.714844 338.214844 Z M 36.714844 36.714844 " clip-rule="nonzero"/></clipPath><clipPath id="3c125933b8"><path d="M 187.5 36.714844 C 104.222656 36.714844 36.714844 104.222656 36.714844 187.5 C 36.714844 270.777344 104.222656 338.285156 187.5 338.285156 C 270.777344 338.285156 338.285156 270.777344 338.285156 187.5 C 338.285156 104.222656 270.777344 36.714844 187.5 36.714844 Z M 187.5 36.714844 " clip-rule="nonzero"/></clipPath></defs><g clip-path="url(#e957f018fe)"><g clip-path="url(#3c125933b8)"><path stroke-linecap="butt" transform="matrix(0.75, 0, 0, 0.75, 36.714838, 36.714841)" fill="none" stroke-linejoin="miter" d="M 201.046895 0.00000309459 C 90.01043 0.00000309459 0.00000701459 90.010426 0.00000701459 201.046891 C 0.00000701459 312.083357 90.01043 402.093779 201.046895 402.093779 C 312.083361 402.093779 402.093783 312.083357 402.093783 201.046891 C 402.093783 90.010426 312.083361 0.00000309459 201.046895 0.00000309459 Z M 201.046895 0.00000309459 " stroke="#1d1d1d" stroke-width="8" stroke-opacity="1" stroke-miterlimit="4"/></g></g></svg>