<svg xmlns="http://www.w3.org/2000/svg" xmlns:xlink="http://www.w3.org/1999/xlink" width="500" zoomAndPan="magnify" viewBox="0 0 375 374.999991" height="500" preserveAspectRatio="xMidYMid meet" version="1.0"><defs><clipPath id="8fa651afba"><path d="M 31.355469 31.355469 L 343.644531 31.355469 L 343.644531 343.644531 L 31.355469 343.644531 Z M 31.355469 31.355469 " clip-rule="nonzero"/></clipPath><clipPath id="29b84dd91c"><path d="M 187.5 31.355469 C 101.265625 31.355469 31.355469 101.265625 31.355469 187.5 C 31.355469 273.734375 101.265625 343.644531 187.5 343.644531 C 273.734375 343.644531 343.644531 273.734375 343.644531 187.5 C 343.644531 101.265625 273.734375 31.355469 187.5 31.355469 Z M 187.5 31.355469 " clip-rule="nonzero"/></clipPath><clipPath id="f382a1a734"><path d="M 90.0625 44.433594 L 343 44.433594 L 343 276.933594 L 90.0625 276.933594 Z M 90.0625 44.433594 " clip-rule="nonzero"/></clipPath></defs><g clip-path="url(#8fa651afba)"><g clip-path="url(#29b84dd91c)"><path fill="#04924d" d="M 31.355469 31.355469 L 343.644531 31.355469 L 343.644531 343.644531 L 31.355469 343.644531 Z M 31.355469 31.355469 " fill-opacity="1" fill-rule="nonzero"/></g></g><g clip-path="url(#f382a1a734)"><path fill="#ffffff" d="M 338.320312 44.550781 L 330.832031 46.277344 C 326.234375 47.652344 321.355469 49.648438 316.1875 52.265625 L 308.226562 56.660156 C 302.773438 59.902344 297.039062 63.765625 291.019531 68.253906 C 278.980469 77.226562 265.804688 88.691406 251.488281 102.648438 C 216.457031 137.75 185.390625 176.3125 158.289062 218.335938 C 153.476562 208.203125 146.289062 196.289062 136.730469 182.589844 C 131.636719 175.6875 126.394531 170.484375 121 166.976562 C 114.980469 166.25 105.089844 170.710938 91.332031 180.359375 C 90.453125 181.683594 90.238281 182.707031 90.6875 183.4375 C 103.042969 196.0625 111.675781 206.554688 116.589844 214.90625 C 125.761719 229.289062 135.382812 249.464844 145.453125 275.425781 C 146.015625 276.296875 146.722656 276.59375 147.574219 276.3125 L 180.414062 255.636719 C 181.976562 254.558594 183.46875 253.121094 184.898438 251.324219 C 201.40625 204.921875 221.097656 167.183594 243.972656 138.105469 C 250.867188 128.308594 267.859375 111.011719 294.949219 86.226562 C 305.917969 76.449219 321.542969 64.585938 341.824219 50.632812 C 343 47.96875 341.832031 45.941406 338.320312 44.550781 " fill-opacity="0.996" fill-rule="nonzero"/></g></svg>